<?xml version="1.0" standalone="no"?>
<!DOCTYPE svg PUBLIC "-//W3C//DTD SVG 20010904//EN"
 "http://www.w3.org/TR/2001/REC-SVG-20010904/DTD/svg10.dtd">
<svg version="1.0" xmlns="http://www.w3.org/2000/svg"
 width="512.000000pt" height="512.000000pt" viewBox="0 0 512.000000 512.000000"
 preserveAspectRatio="xMidYMid meet">

<g transform="translate(0.000000,512.000000) scale(0.100000,-0.100000)"
fill="#000000" stroke="none">
<path d="M1620 3313 c-3 -45 2 -297 7 -325 5 -32 9 -38 31 -38 l25 0 -5 145
c-2 80 0 145 4 145 5 0 90 -63 188 -140 125 -98 187 -140 205 -140 l25 0 -6
168 c-3 92 -8 173 -10 180 -2 7 -14 12 -26 10 -23 -3 -23 -4 -20 -145 3 -87 0
-143 -6 -143 -5 0 -29 17 -53 38 -24 21 -80 66 -124 100 -44 33 -102 78 -130
100 -48 37 -104 61 -105 45z"/>
<path d="M466 3268 c2 -24 6 -105 10 -180 6 -137 6 -138 30 -138 23 0 24 2 24
80 l0 80 174 0 173 0 7 -37 c3 -21 6 -57 6 -80 0 -39 2 -43 25 -43 24 0 25 2
25 68 0 37 -3 118 -7 180 -6 109 -7 112 -30 112 -22 0 -23 -3 -23 -80 l0 -80
-175 0 -175 0 0 58 c0 84 -7 102 -40 102 -26 0 -27 -2 -24 -42z"/>
<path d="M1055 3223 c10 -153 14 -172 46 -208 41 -46 110 -68 202 -63 99 5
163 36 188 92 19 43 25 132 13 220 -6 43 -9 46 -36 46 l-29 0 7 -120 c8 -134
1 -155 -59 -187 -46 -24 -163 -23 -208 3 -48 28 -58 56 -66 185 l-8 114 -28 3
-28 3 6 -88z"/>
<path d="M1945 2763 c-48 -43 -91 -80 -96 -81 -5 -2 -50 31 -100 73 -77 65
-94 76 -122 73 -31 -3 -30 -5 81 -98 l112 -95 0 -77 0 -78 31 0 32 0 -5 78 -5
77 41 40 c22 22 69 66 103 97 46 42 58 58 47 62 -27 10 -31 8 -119 -71z"/>
<path d="M655 2818 c-2 -7 -1 -87 3 -178 l7 -165 125 -3 c211 -5 315 35 341
131 27 102 -37 180 -175 212 -78 19 -295 20 -301 3z m340 -54 c109 -57 106
-194 -6 -238 -46 -19 -253 -34 -261 -20 -3 5 -9 71 -13 147 l-7 139 124 -4
c101 -2 130 -7 163 -24z"/>
<path d="M1344 2788 c-15 -24 -64 -102 -110 -174 -46 -73 -84 -135 -84 -138 0
-3 13 -6 29 -6 23 0 34 9 59 50 l32 51 137 -3 137 -3 31 -42 c25 -34 36 -42
64 -42 31 -1 33 0 20 18 -8 11 -63 90 -124 175 -96 137 -113 156 -137 156 -22
0 -33 -9 -54 -42z m120 -95 c31 -43 56 -81 56 -85 0 -5 -49 -8 -110 -8 -64 0
-110 4 -110 10 0 15 91 160 100 160 5 0 34 -35 64 -77z"/>
<path d="M510 2650 c0 -38 2 -40 29 -40 36 0 40 6 34 48 -5 28 -9 32 -34 32
-27 0 -29 -3 -29 -40z"/>
<path d="M2745 2639 c-87 -5 -108 -10 -165 -39 -87 -44 -198 -156 -223 -225
-11 -27 -29 -77 -41 -111 -25 -67 -39 -137 -26 -129 4 3 10 -2 14 -10 3 -8 2
-15 -2 -15 -4 0 -12 -10 -17 -23 -10 -21 -9 -22 25 -19 19 1 42 -2 50 -8 13
-9 10 -15 -20 -40 -19 -17 -40 -30 -47 -30 -15 0 -16 -9 -4 -29 7 -10 21 -12
56 -7 29 5 51 3 60 -4 10 -8 22 -7 49 4 20 8 36 19 36 23 0 5 -13 25 -30 45
-42 51 -52 82 -37 116 16 37 25 42 75 42 56 0 54 17 -8 63 -27 21 -50 43 -50
51 0 23 59 96 86 106 44 17 105 12 140 -12 18 -12 49 -47 68 -77 43 -64 36
-81 -30 -81 -60 0 -66 -18 -7 -22 38 -2 49 -7 51 -22 4 -17 0 -18 -34 -13 -22
4 -40 11 -42 17 -5 14 -22 12 -22 -2 1 -20 50 -51 89 -58 l36 -5 8 -74 c4 -41
6 -80 3 -87 -3 -7 -23 -25 -45 -39 -47 -29 -95 -32 -167 -10 -27 8 -50 15 -51
15 -6 0 -1 -66 5 -80 5 -10 25 -16 57 -18 44 -3 51 0 60 19 11 25 70 36 61 12
-4 -9 5 -13 27 -13 31 0 57 -15 57 -32 0 -4 -7 -8 -15 -8 -8 0 -15 -4 -15 -10
0 -5 9 -10 20 -10 12 0 26 -5 33 -10 76 -64 133 -94 89 -47 -24 25 -29 57 -11
57 7 0 18 -8 26 -17 13 -16 14 -15 8 10 -8 37 10 27 20 -10 3 -16 18 -41 33
-57 l27 -29 -30 7 c-23 5 -16 -2 33 -33 34 -22 62 -42 62 -44 0 -2 11 -57 26
-122 17 -83 23 -134 19 -165 -8 -49 -39 -123 -61 -141 -7 -6 -11 -16 -8 -21 3
-5 0 -17 -8 -26 -27 -34 -38 -62 -37 -94 1 -50 11 -66 51 -87 37 -18 40 -13
10 21 -12 14 -12 20 -2 33 11 14 15 14 29 1 16 -15 20 -16 46 -16 9 0 15 -6
13 -12 -1 -7 1 -26 5 -41 5 -17 4 -34 -2 -41 -8 -9 2 -18 40 -35 28 -12 56
-20 63 -17 7 3 7 5 -1 5 -21 1 -15 21 6 21 21 0 36 26 20 35 -17 11 1 25 33
25 25 0 29 3 25 20 -3 11 1 27 9 35 8 7 13 18 12 22 -5 16 69 80 105 92 21 7
37 17 37 23 0 5 -29 -6 -65 -26 -36 -20 -68 -36 -70 -36 -12 0 44 70 68 85 31
18 36 52 10 63 -23 9 -113 63 -113 67 0 6 95 -2 113 -10 9 -4 17 -3 17 3 0 5
-37 23 -82 39 -45 17 -84 35 -86 41 -6 18 76 15 131 -4 25 -9 54 -14 64 -12
10 2 -16 15 -57 27 -117 36 -126 41 -109 52 18 11 75 11 117 0 18 -6 32 -6 32
-1 0 10 -63 30 -92 30 -34 0 -18 18 22 25 30 5 40 11 40 25 0 10 5 22 10 25 6
3 10 19 10 35 0 16 4 31 9 34 4 3 11 23 15 45 6 37 -14 116 -52 211 -26 65
-42 135 -32 138 7 3 7 8 1 15 -5 7 -12 32 -15 57 -2 25 -12 70 -20 100 -9 30
-16 65 -16 79 0 31 -27 124 -52 181 -41 92 -103 147 -208 186 -66 24 -231 40
-345 33z m-18 -109 c-14 -11 -29 -20 -34 -20 -10 1 39 39 51 40 5 0 -3 -9 -17
-20z m-382 -550 c-3 -5 -11 -10 -16 -10 -6 0 -7 5 -4 10 3 6 11 10 16 10 6 0
7 -4 4 -10z m1013 -870 c-14 -22 -24 -19 -15 5 4 8 11 15 17 15 6 0 6 -7 -2
-20z m-332 -47 c-10 -10 -19 5 -10 18 6 11 8 11 12 0 2 -7 1 -15 -2 -18z m128
-19 c7 -19 -2 -37 -15 -29 -12 8 -12 45 0 45 5 0 12 -7 15 -16z m136 -54 c0
-13 -11 -13 -30 0 -12 8 -11 10 8 10 12 0 22 -4 22 -10z m-65 -38 c-3 -3 -11
0 -18 7 -9 10 -8 11 6 5 10 -3 15 -9 12 -12z"/>
<path d="M1288 2383 c0 -5 -1 -28 -2 -53 -1 -41 -3 -45 -28 -48 -38 -4 -35
-22 3 -22 17 0 28 -4 24 -10 -3 -5 -17 -10 -31 -10 -14 0 -22 -4 -19 -10 3 -5
17 -10 31 -10 15 0 24 -6 24 -15 0 -8 9 -15 20 -15 18 0 19 6 14 88 -3 48 -7
93 -10 100 -4 13 -23 17 -26 5z"/>
<path d="M1610 2325 c0 -71 -24 -78 -34 -10 -5 30 -12 45 -22 45 -12 0 -14
-19 -12 -112 2 -93 6 -113 18 -113 11 0 16 14 18 58 5 97 42 63 42 -39 0 -24
5 -34 15 -34 12 0 15 18 15 99 0 116 -7 161 -26 161 -10 0 -14 -15 -14 -55z"/>
<path d="M1030 2340 c0 -6 28 -10 65 -10 37 0 65 4 65 10 0 6 -28 10 -65 10
-37 0 -65 -4 -65 -10z"/>
<path d="M980 2310 c0 -6 48 -10 125 -10 77 0 125 4 125 10 0 6 -48 10 -125
10 -77 0 -125 -4 -125 -10z"/>
<path d="M1362 2258 l3 -53 78 -3 c48 -2 77 1 77 8 0 6 -25 10 -60 10 l-60 0
0 35 0 35 60 0 c33 0 60 4 60 10 0 6 -34 10 -81 10 l-80 0 3 -52z"/>
<path d="M1013 2278 c-28 -14 -39 -44 -23 -64 7 -8 29 -17 49 -20 35 -6 36 -7
33 -45 l-4 -39 85 0 c99 0 177 9 177 21 0 5 -50 10 -112 11 -106 3 -111 4
-114 26 -3 18 1 22 22 22 32 0 84 27 84 44 0 7 -9 21 -21 32 -24 22 -141 30
-176 12z m152 -29 c17 -17 -24 -39 -76 -39 -59 0 -81 20 -47 45 25 18 103 14
123 -6z"/>
<path d="M2315 2039 c-16 -10 -25 -19 -19 -19 7 0 22 9 35 20 30 24 23 24 -16
-1z"/>
<path d="M2490 2026 c0 -20 23 -45 48 -54 29 -10 98 -2 142 16 l25 10 -25 5
c-14 3 -52 8 -85 11 -33 3 -70 9 -82 12 -13 4 -23 3 -23 0z"/>
<path d="M2690 1735 c-14 -16 -3 -20 19 -6 8 5 9 11 3 15 -5 3 -15 -1 -22 -9z"/>
<path d="M95 1460 c-3 -6 -17 -7 -31 -4 -23 6 -24 4 -24 -40 0 -40 3 -46 21
-46 11 0 17 -4 14 -10 -3 -5 1 -10 9 -10 8 0 20 -9 26 -20 11 -20 -3 -30 -15
-10 -3 6 -17 10 -31 10 -19 0 -24 -5 -24 -25 0 -16 6 -25 15 -25 8 0 15 5 15
11 0 5 -5 7 -10 4 -6 -3 -10 -1 -10 4 0 17 31 13 81 -12 l47 -22 -24 -17 c-25
-19 -56 -15 -48 7 3 8 12 11 20 8 8 -3 14 -2 14 1 0 4 -12 11 -26 16 -19 8
-31 6 -49 -8 -22 -15 -24 -24 -25 -94 l0 -77 40 2 c22 1 41 5 42 9 4 24 0 30
-37 53 -25 15 -34 24 -22 25 10 0 20 6 23 14 5 12 11 13 30 4 13 -6 21 -15 18
-19 -3 -5 2 -9 10 -9 9 0 16 -7 16 -15 0 -8 -6 -13 -12 -12 -7 2 -3 -1 10 -7
27 -12 29 -26 2 -19 -11 3 -20 0 -20 -6 0 -6 5 -11 10 -11 6 0 10 -5 10 -11 0
-6 -7 -9 -15 -5 -25 9 -84 -23 -85 -46 0 -3 14 -9 30 -13 17 -4 27 -11 24 -17
-4 -6 -10 -6 -17 1 -6 6 -22 11 -37 11 l-25 0 29 -15 c15 -8 35 -15 43 -15 12
0 14 -7 10 -30 -7 -34 1 -37 51 -19 17 6 34 19 37 30 8 24 61 26 93 3 23 -16
23 -16 3 -30 -12 -9 -30 -12 -44 -9 -17 5 -24 2 -24 -9 0 -9 8 -16 18 -16 9 0
26 -3 36 -7 15 -6 13 -8 -11 -13 -33 -6 -48 -30 -19 -31 18 -1 17 -1 -27 -15
-12 -4 -12 -7 -1 -13 10 -7 7 -13 -15 -25 -28 -15 -22 -20 21 -17 26 1 53 -17
40 -26 -5 -5 -11 -16 -12 -26 -1 -14 3 -16 15 -11 10 4 43 14 74 23 46 13 54
19 41 27 -13 8 -14 14 -3 34 7 14 24 37 37 52 14 14 22 31 19 36 -3 5 4 10 17
10 65 2 86 4 130 14 41 9 97 46 97 64 0 13 -61 65 -70 59 -5 -3 -10 1 -10 10
0 9 4 13 10 10 5 -3 7 0 4 9 -3 8 -11 13 -18 10 -7 -3 -26 2 -42 11 -34 18
-64 20 -64 4 0 -6 -7 -8 -16 -5 -27 10 -37 -5 -17 -26 18 -20 18 -20 -12 -14
-32 7 -83 -20 -57 -30 16 -7 16 -24 -1 -24 -8 0 -14 -7 -14 -15 0 -8 7 -15 16
-15 13 0 13 -2 -2 -17 -16 -16 -19 -16 -45 -1 -15 9 -33 30 -41 47 -14 31 -36
45 -25 16 4 -8 1 -15 -5 -15 -6 0 -11 5 -11 10 0 6 -11 20 -25 32 -30 26 -32
42 -5 33 10 -3 28 -1 40 5 20 11 30 -3 10 -15 -21 -13 -9 -23 15 -12 14 7 25
17 25 23 0 7 25 23 56 38 30 14 53 30 50 34 -2 4 32 6 76 4 69 -3 81 -6 85
-23 3 -10 12 -19 19 -19 8 0 14 -5 14 -11 0 -5 5 -7 10 -4 12 7 14 45 3 45
-13 0 -42 59 -31 62 5 2 8 15 6 28 l-4 25 -14 -27 c-7 -16 -16 -28 -20 -28
-10 0 -25 68 -22 98 2 18 -2 22 -25 23 -15 1 -31 1 -36 0 -4 -1 -12 10 -17 24
-5 14 -14 25 -20 25 -6 0 -8 5 -5 10 3 6 11 10 16 10 6 0 7 -5 3 -12 -4 -7 -3
-8 4 -4 7 4 12 11 12 17 0 16 -26 10 -55 -15 -20 -17 -24 -25 -14 -29 10 -4 9
-6 -3 -6 -26 -1 -22 -31 4 -31 12 0 18 -3 15 -7 -11 -11 -107 -14 -107 -3 0 5
-6 7 -14 4 -19 -7 -30 14 -16 31 9 11 5 15 -24 20 -19 4 -40 13 -47 21 -15 18
1 18 37 0 15 -8 31 -13 35 -10 12 7 -6 47 -22 52 -11 3 -11 1 1 -7 8 -5 11
-13 8 -17 -4 -4 -23 7 -43 25 -41 36 -53 38 -71 14 -12 -16 -13 -16 -14 -2 0
26 -52 40 -65 19z m149 -135 c4 -10 -1 -15 -15 -15 -17 0 -18 2 -7 15 16 18
15 18 22 0z m81 -65 c3 -5 1 -10 -4 -10 -6 0 -11 5 -11 10 0 6 2 10 4 10 3 0
8 -4 11 -10z m-248 -16 c-3 -3 -12 -4 -19 -1 -8 3 -5 6 6 6 11 1 17 -2 13 -5z
m493 -156 c0 -4 -3 -8 -7 -8 -5 0 -18 -3 -30 -6 -16 -5 -23 -2 -23 8 0 10 10
15 30 15 17 0 30 -4 30 -9z m30 -64 c0 -10 7 -13 24 -8 38 9 48 -3 31 -37 -17
-32 -24 -35 -48 -16 -20 14 -38 95 -19 83 7 -4 12 -14 12 -22z m-55 5 c11 -17
0 -20 -21 -4 -17 13 -17 14 -2 15 9 0 20 -5 23 -11z m-355 -13 c0 -9 -40 -13
-46 -5 -3 5 6 9 20 9 14 0 26 -2 26 -4z m290 -6 c0 -5 -4 -10 -9 -10 -6 0 -13
5 -16 10 -3 6 1 10 9 10 9 0 16 -4 16 -10z m-120 -80 c0 -5 8 -6 17 -3 15 6
16 5 3 -9 -12 -13 -17 -14 -25 -4 -5 7 -17 15 -25 19 -10 4 -8 6 8 6 12 1 22
-3 22 -9z m-33 -66 c-3 -3 -12 -4 -19 -1 -8 3 -5 6 6 6 11 1 17 -2 13 -5z"/>
<path d="M305 1450 c3 -5 10 -10 16 -10 5 0 9 5 9 10 0 6 -7 10 -16 10 -8 0
-12 -4 -9 -10z"/>
<path d="M635 1190 c-7 -12 2 -30 16 -30 5 0 9 9 9 20 0 21 -15 27 -25 10z"/>
<path d="M680 1139 c0 -5 5 -7 10 -4 6 3 10 8 10 11 0 2 -4 4 -10 4 -5 0 -10
-5 -10 -11z"/>
<path d="M3500 1110 c-18 -16 -29 -30 -22 -30 6 0 14 5 17 10 3 6 11 10 16 10
6 0 8 -4 5 -9 -3 -5 1 -11 9 -15 9 -3 15 0 15 9 0 8 9 19 20 25 27 14 25 30
-3 30 -13 0 -39 -13 -57 -30z"/>
<path d="M4125 1100 c-3 -5 -16 -10 -28 -10 -27 0 -54 -16 -44 -27 4 -4 17 -2
27 5 16 10 25 8 53 -8 19 -11 42 -18 51 -14 9 3 16 1 16 -5 0 -6 13 -11 29
-11 20 0 35 -8 45 -22 9 -12 16 -17 16 -11 0 6 9 9 20 6 11 -3 20 0 20 6 0 6
-11 11 -24 11 -19 0 -25 6 -28 25 -2 14 -5 24 -8 23 -3 -2 -18 7 -34 20 -30
23 -99 31 -111 12z"/>
<path d="M778 993 c7 -3 16 -2 19 1 4 3 -2 6 -13 5 -11 0 -14 -3 -6 -6z"/>
<path d="M53 983 c-10 -3 -10 -7 0 -17 14 -16 37 -10 37 10 0 14 -14 17 -37 7z"/>
<path d="M4108 980 c12 -5 22 -14 22 -19 0 -5 9 -7 20 -4 19 5 20 6 3 19 -10
7 -29 13 -43 13 -25 0 -25 0 -2 -9z"/>
<path d="M730 950 c0 -8 -10 -9 -30 -5 -19 4 -30 3 -30 -4 0 -6 20 -11 46 -11
31 0 44 4 42 12 -6 16 -28 23 -28 8z"/>
<path d="M4048 953 c-10 -2 -18 -8 -18 -13 0 -5 8 -13 18 -19 18 -10 25 -71 7
-71 -5 0 -2 -7 8 -14 11 -9 14 -17 8 -21 -15 -9 -49 12 -56 35 -6 20 -7 20
-36 3 -32 -19 -38 -33 -14 -33 8 0 15 -4 15 -10 0 -5 -18 -10 -40 -10 -41 0
-49 7 -28 28 9 9 9 12 -4 12 -8 0 -36 11 -62 25 -26 14 -60 25 -76 25 -37 0
-60 9 -60 24 0 6 -11 13 -23 14 -27 2 -81 -48 -59 -55 20 -8 13 -25 -8 -18
-10 3 -45 2 -77 -4 -32 -6 -93 -13 -136 -17 -64 -5 -76 -8 -67 -19 6 -8 18
-11 27 -8 8 3 18 2 22 -3 13 -19 55 -37 59 -25 4 12 32 16 32 4 0 -3 -7 -15
-17 -25 -15 -17 -14 -18 16 -18 18 0 30 -4 26 -9 -3 -5 4 -12 15 -16 11 -3 20
-11 20 -16 0 -5 -17 -2 -37 6 -37 16 -53 27 -85 58 -12 11 -33 17 -60 16 -40
0 -41 -1 -18 -11 15 -6 20 -12 13 -15 -26 -9 -15 -30 63 -122 17 -20 43 -57
58 -83 24 -41 31 -47 52 -42 18 5 24 2 24 -10 0 -9 -7 -16 -15 -16 -20 0 -19
-12 3 -36 10 -10 19 -23 20 -29 7 -32 15 -45 30 -45 13 0 13 2 -3 13 -10 8
-15 19 -11 25 4 6 -1 23 -10 37 -23 35 -4 59 39 49 20 -4 27 -3 23 5 -4 6 -2
11 3 11 6 0 11 -9 11 -21 0 -16 -4 -19 -20 -14 -32 10 -23 -5 10 -16 16 -6 27
-15 24 -20 -3 -6 -11 -5 -20 2 -18 15 -43 -4 -41 -30 1 -16 11 -19 71 -20 77
-2 84 -4 67 -24 -6 -8 -9 -22 -5 -31 4 -9 1 -16 -6 -16 -7 0 -18 -7 -25 -17
-7 -10 -17 -13 -25 -8 -10 6 -9 11 5 22 17 12 14 13 -26 13 -55 0 -66 -10 -61
-55 4 -31 8 -35 33 -35 36 0 38 -17 4 -26 -25 -6 -35 -37 -15 -49 15 -9 12
-25 -3 -19 -9 3 -16 -13 -23 -53 -6 -32 -14 -66 -19 -76 -7 -16 16 -17 439
-17 274 1 445 4 441 10 -3 5 -19 7 -34 4 -25 -5 -31 -2 -45 27 -17 35 -15 46
6 33 7 -5 27 -9 43 -9 23 0 30 -4 30 -20 0 -39 13 -45 100 -45 71 0 83 2 79
15 -7 16 21 22 30 6 3 -4 18 -6 32 -3 19 3 25 1 20 -7 -5 -7 2 -11 21 -11 21
0 24 3 13 10 -18 11 -13 16 27 24 18 4 34 3 38 -3 3 -6 15 -11 26 -11 11 0 17
-4 14 -10 -4 -6 33 -10 103 -10 85 0 112 3 122 15 16 20 34 19 26 -1 -4 -10
-1 -14 6 -12 9 3 14 40 16 126 2 113 1 121 -17 127 -12 3 -18 12 -15 20 3 8
12 11 20 8 18 -7 19 23 2 60 -10 19 -20 27 -40 27 -15 0 -33 8 -40 19 -17 24
-54 35 -64 19 -4 -6 -2 -14 4 -16 7 -2 9 -9 6 -14 -4 -6 -3 -8 3 -5 15 10 43
-27 43 -58 0 -8 7 -15 15 -15 8 0 15 7 15 16 0 8 5 12 10 9 18 -11 11 -32 -15
-43 -36 -17 -85 -15 -120 4 -16 9 -43 20 -58 25 -26 7 -27 6 -16 -9 31 -41 64
-72 77 -72 9 0 12 -10 10 -32 -2 -27 1 -33 17 -34 11 -1 31 -3 45 -4 l25 -1
-24 -10 c-52 -20 -101 9 -101 60 0 13 -30 51 -75 96 -41 41 -75 70 -75 63 0
-7 -5 -6 -15 2 -12 10 -13 16 -3 27 17 21 109 11 135 -14 18 -16 16 -22 -6
-16 -23 6 -39 -16 -20 -28 20 -12 31 -11 23 2 -5 9 3 10 30 5 35 -7 36 -6 35
21 -1 17 -3 21 -6 11 -7 -26 -22 -22 -41 12 -10 18 -23 28 -31 25 -14 -6 -71
41 -71 58 0 11 71 0 85 -14 5 -5 15 -9 23 -9 12 0 12 3 1 16 -10 12 -10 17 0
23 7 5 -11 13 -46 20 -39 7 -59 8 -61 1 -2 -5 -9 -10 -16 -10 -7 0 -21 -9 -31
-20 -13 -14 -29 -20 -49 -18 -42 4 -40 30 2 39 42 9 46 13 33 37 -6 12 -11 33
-11 48 0 27 -1 27 -14 8 -8 -10 -18 -16 -22 -11 -4 4 4 20 18 35 36 38 41 69
14 76 -26 7 -106 6 -88 -1 6 -2 12 -13 12 -24 0 -12 -5 -16 -15 -13 -8 4 -15
1 -15 -5 0 -6 -7 -8 -15 -5 -8 4 -15 2 -15 -4 0 -6 6 -13 13 -15 23 -10 -58
-7 -91 2 -25 8 -32 7 -29 -2 2 -7 17 -15 33 -19 21 -4 15 -6 -21 -5 -45 2 -50
4 -48 25 2 15 -3 22 -15 22 -38 0 -32 15 10 26 41 11 41 12 11 13 -17 1 -35 6
-38 11 -10 16 -22 12 -28 -9 -3 -12 6 -33 24 -54 18 -22 25 -38 19 -42 -6 -4
-8 -10 -5 -15 7 -11 46 -9 62 2 6 5 31 7 55 4 40 -5 49 -2 86 29 44 38 70 31
33 -9 l-22 -23 31 -13 c39 -16 38 -26 -4 -40 -41 -13 -63 -35 -46 -45 14 -9
-6 -35 -27 -35 -11 0 -13 -7 -8 -30 5 -23 3 -30 -9 -30 -18 0 -49 42 -44 62 4
17 -46 78 -62 78 -7 0 -9 -7 -6 -16 5 -14 1 -15 -31 -9 -46 8 -73 22 -73 37 0
6 9 3 20 -7 11 -10 26 -15 36 -11 15 6 14 9 -7 32 -19 21 -21 27 -9 34 17 10
18 9 -40 45 -34 22 -56 28 -95 27 -40 0 -54 4 -70 22 -11 12 -28 25 -37 29
-10 3 -18 13 -18 21 0 8 -5 27 -11 43 -18 44 -17 63 4 75 14 7 26 7 43 -2 18
-10 29 -10 53 0 31 12 76 10 144 -8 45 -12 49 -1 6 15 -34 13 -31 38 3 27 14
-4 18 -2 14 5 -9 13 -58 15 -71 2 -6 -6 -29 -4 -60 6 -61 20 -62 20 -47 35 7
7 12 16 12 20 0 4 -9 -1 -20 -12 -13 -13 -33 -20 -56 -20 -33 0 -35 -2 -23
-17 13 -16 12 -17 -3 -4 -14 10 -15 18 -7 32 6 12 6 19 0 19 -5 0 -15 2 -23 4
-7 2 -21 2 -30 -1z m109 -49 c-3 -3 -12 -4 -19 -1 -8 3 -5 6 6 6 11 1 17 -2
13 -5z m-419 -95 c2 -19 -2 -29 -9 -27 -6 2 -10 7 -10 11 1 4 1 16 1 27 0 32
16 23 18 -11z m108 -3 c4 -30 -7 -46 -32 -46 -22 0 -23 2 -14 21 7 11 9 27 6
35 -4 11 0 15 16 12 12 -2 22 -11 24 -22z m169 4 c-3 -5 -11 -10 -16 -10 -6 0
-7 5 -4 10 3 6 11 10 16 10 6 0 7 -4 4 -10z m73 -28 c3 -11 0 -12 -16 -3 -11
6 -28 8 -38 4 -12 -4 -15 -3 -10 6 10 16 58 10 64 -7z m-519 -29 c2 -2 -5 -3
-17 -3 -14 0 -22 6 -22 16 0 14 3 15 18 3 9 -7 19 -15 21 -16z m136 17 c3 -5
1 -10 -4 -10 -6 0 -11 5 -11 10 0 6 2 10 4 10 3 0 8 -4 11 -10z m25 -45 c-14
-8 -32 -14 -40 -14 -8 0 -1 6 15 14 40 18 57 18 25 0z m-303 -51 c-3 -3 -12
-4 -19 -1 -8 3 -5 6 6 6 11 1 17 -2 13 -5z m413 -4 c0 -5 -4 -10 -10 -10 -5 0
-10 5 -10 10 0 6 5 10 10 10 6 0 10 -4 10 -10z m-272 -56 c12 -8 22 -22 22
-30 0 -12 -7 -10 -29 8 -45 35 -39 54 7 22z m155 -14 c10 0 17 -8 17 -19 0
-35 -61 -42 -98 -11 -32 26 -19 44 27 36 20 -3 44 -6 54 -6z m507 -20 c0 -5
-4 -10 -10 -10 -5 0 -10 5 -10 10 0 6 5 10 10 10 6 0 10 -4 10 -10z m-343 -11
c9 -9 8 -15 -2 -25 -7 -8 -15 -19 -18 -26 -2 -7 -8 -10 -12 -6 -5 5 -3 19 3
32 8 19 8 26 -1 30 -7 3 -6 5 4 5 8 1 20 -4 26 -10z m313 -4 c7 -9 10 -18 7
-21 -5 -6 -67 23 -67 31 0 12 49 3 60 -10z m-560 -29 c0 -2 -7 -6 -15 -10 -8
-3 -15 -1 -15 4 0 6 7 10 15 10 8 0 15 -2 15 -4z m86 -22 c-18 -18 -26 -18
-26 0 0 15 20 26 33 19 4 -2 1 -11 -7 -19z m239 12 c19 -14 19 -15 2 -51 -13
-28 -15 -41 -7 -50 9 -11 5 -17 -17 -28 -15 -7 -35 -12 -44 -10 -24 6 -1 50
29 58 18 4 23 12 21 33 -2 15 -10 35 -18 45 -12 15 -12 17 1 17 8 0 23 -6 33
-14z m261 -81 c18 -14 35 -34 39 -44 3 -10 15 -21 25 -24 24 -6 27 -27 3 -27
-9 0 -13 -3 -10 -6 4 -4 20 -1 37 6 30 12 32 11 71 -31 36 -39 39 -46 29 -72
-16 -48 8 -62 56 -31 13 9 27 14 30 12 7 -8 -45 -39 -69 -41 -12 -2 -36 -10
-52 -19 -33 -18 -65 -9 -65 17 0 8 -7 15 -15 15 -8 0 -15 4 -15 9 0 12 26 21
63 21 l30 0 -44 30 c-25 16 -51 41 -59 55 -14 26 -51 34 -78 16 -16 -10 -108
4 -139 20 -23 13 -31 43 -13 54 5 3 7 12 3 20 -7 20 49 44 101 45 27 0 49 -8
72 -25z m194 15 c0 -5 14 -10 30 -10 33 0 38 -11 15 -30 -21 -18 -60 1 -62 29
-1 11 2 21 8 21 5 0 9 -4 9 -10z m-654 -28 c-4 -3 -14 2 -24 12 -16 18 -16 18
6 6 13 -6 21 -14 18 -18z m234 -12 c0 -5 -2 -10 -4 -10 -3 0 -8 5 -11 10 -3 6
-1 10 4 10 6 0 11 -4 11 -10z m-167 -24 c-10 -13 -22 -22 -27 -19 -5 3 2 14
15 24 32 24 33 24 12 -5z m871 15 c8 -12 -3 -41 -15 -41 -5 0 -9 7 -9 15 0 8
-4 15 -10 15 -5 0 -10 5 -10 10 0 12 37 13 44 1z m-179 -21 c3 -5 1 -10 -4
-10 -6 0 -11 5 -11 10 0 6 2 10 4 10 3 0 8 -4 11 -10z m-717 -29 c26 -22 28
-34 7 -51 -11 -9 -15 -9 -15 -1 0 7 -4 10 -9 6 -16 -9 -25 16 -10 27 11 7 11
11 2 15 -14 5 -18 23 -5 23 4 -1 17 -9 30 -19z m152 -2 c0 -14 -17 -10 -23 5
-4 10 -1 13 9 9 7 -3 14 -9 14 -14z m200 -49 c-20 -13 -53 -13 -45 0 3 6 18
10 33 10 21 0 24 -2 12 -10z m-525 -18 c-3 -3 -11 0 -18 7 -9 10 -8 11 6 5 10
-3 15 -9 12 -12z m519 -14 c10 -6 33 -14 50 -19 l31 -8 -22 18 c-13 11 -23 22
-23 26 0 9 51 -32 52 -42 0 -4 5 -17 11 -28 19 -36 17 -65 -4 -65 -14 0 -18
-4 -12 -12 4 -7 8 -26 9 -41 2 -25 0 -26 -11 -10 -10 14 -18 15 -36 7 -36 -15
-171 -9 -205 10 -16 8 -40 27 -53 41 -19 20 -20 25 -7 25 12 0 15 6 11 23 -4
16 1 29 19 46 49 46 132 59 190 29z m-374 -49 c0 -6 -4 -7 -10 -4 -5 3 -10 11
-10 16 0 6 5 7 10 4 6 -3 10 -11 10 -16z m924 -44 c-4 -8 -10 -12 -15 -9 -11
6 -2 24 11 24 5 0 7 -7 4 -15z m-1067 -1 c-3 -3 -12 -4 -19 -1 -8 3 -5 6 6 6
11 1 17 -2 13 -5z m198 -24 c-3 -5 -12 -10 -18 -10 -7 0 -6 4 3 10 19 12 23
12 15 0z m635 -25 c23 -14 38 -30 34 -36 -4 -6 -9 -7 -13 -3 -3 5 -23 17 -43
28 -20 10 -39 25 -43 33 -7 19 9 13 65 -22z m-710 -59 c0 -3 -4 -8 -10 -11 -5
-3 -10 -1 -10 4 0 6 5 11 10 11 6 0 10 -2 10 -4z m530 -21 c20 -24 6 -28 -15
-5 -10 11 -13 20 -8 20 6 0 16 -7 23 -15z m-690 -25 c0 -5 -2 -10 -4 -10 -3 0
-8 5 -11 10 -3 6 -1 10 4 10 6 0 11 -4 11 -10z"/>
<path d="M4148 453 c7 -3 16 -2 19 1 4 3 -2 6 -13 5 -11 0 -14 -3 -6 -6z"/>
<path d="M3830 940 c13 -8 13 -10 1 -10 -23 0 0 -16 32 -24 l29 -7 -27 26
c-16 14 -33 25 -39 25 -6 0 -4 -5 4 -10z"/>
<path d="M1050 935 c0 -3 6 -14 12 -25 11 -17 9 -23 -9 -41 -22 -23 -88 -35
-98 -19 -3 6 1 7 9 4 10 -4 16 -1 16 10 0 14 -5 14 -47 -2 -45 -16 -69 -42
-41 -42 8 0 23 -7 34 -15 18 -15 16 -15 -26 -9 -25 3 -55 12 -67 20 -28 18
-39 18 -25 1 14 -17 -7 -61 -32 -65 -11 -3 -16 0 -12 7 10 15 2 14 -55 -6 -47
-17 -49 -17 -78 5 -17 12 -38 22 -48 22 -14 0 -15 2 -4 9 10 6 23 3 41 -11 19
-13 34 -17 53 -13 29 8 37 25 11 25 -9 0 -13 5 -10 13 3 6 9 20 12 30 4 9 11
17 18 17 6 0 4 5 -4 10 -16 10 -54 -16 -44 -31 3 -5 1 -9 -5 -9 -5 0 -11 5
-13 11 -3 8 -18 4 -46 -10 -44 -23 -72 -27 -72 -11 0 6 9 10 19 10 13 0 18 5
14 18 -3 14 -12 17 -39 14 -18 -2 -31 -8 -29 -13 3 -4 13 -5 23 -2 9 3 14 3
10 -1 -12 -14 -68 -18 -68 -5 0 8 -4 8 -15 -1 -17 -14 -21 -35 -4 -25 6 4 13
-2 16 -14 3 -13 18 -25 37 -30 26 -8 27 -9 8 -10 -13 -1 -30 -7 -38 -15 -12
-13 -12 -17 2 -30 8 -9 22 -16 30 -16 22 0 17 -47 -8 -70 -56 -52 -184 -90
-203 -60 -9 14 -45 12 -42 -2 1 -7 -11 -15 -28 -18 -25 -4 -30 -10 -30 -34 0
-36 -41 -69 -51 -42 -4 10 0 22 10 29 16 12 16 15 -4 40 -27 34 -43 35 -30 3
12 -31 -15 -44 -41 -20 -18 17 -19 10 -19 -249 l0 -267 461 0 460 0 -6 21 c-6
18 -3 20 32 17 26 -2 38 -8 38 -18 0 -12 15 -15 70 -16 l70 -2 -38 17 -39 16
22 20 c18 16 20 16 14 2 -3 -10 -1 -17 5 -17 6 0 11 5 11 11 0 21 34 3 40 -21
6 -24 8 -25 113 -28 l106 -3 7 27 c5 20 2 31 -11 40 -16 12 -17 14 -2 20 31
11 17 23 -14 12 -19 -7 -27 -13 -19 -18 8 -5 3 -9 -12 -13 -36 -10 -101 -8
-118 4 -12 8 -8 9 15 6 16 -3 42 1 57 9 15 8 29 14 30 14 2 -1 10 1 18 4 8 3
24 6 34 8 11 2 18 8 15 13 -4 11 -39 16 -106 15 -50 -1 -67 18 -24 26 17 4 31
11 31 16 0 6 7 8 15 4 19 -7 20 8 1 23 -7 6 -16 24 -19 40 -5 24 -10 27 -35
23 -38 -5 -51 14 -14 22 40 9 56 39 32 61 -17 16 -20 15 -39 -4 -26 -26 -64
-28 -59 -3 2 11 11 16 26 14 17 -2 22 2 22 17 0 12 5 21 11 21 5 0 7 4 4 10
-4 6 11 10 39 10 52 0 74 19 24 21 -32 2 -31 2 7 8 47 7 58 37 12 34 -15 -1
-25 2 -22 8 4 5 23 9 43 9 41 0 53 13 77 81 15 42 14 44 -17 28 -15 -8 -19 -8
-14 0 4 6 1 11 -7 11 -8 0 -18 8 -21 17 -6 14 -8 14 -22 -5 -17 -25 -81 -31
-102 -10 -10 10 -15 10 -21 -1 -7 -11 -12 -8 -23 10 -8 13 -22 36 -32 52 -9
15 -12 27 -7 27 5 0 11 -6 14 -12 4 -10 7 -10 18 0 7 6 24 12 37 12 13 0 20 4
17 10 -3 6 1 13 9 16 10 4 28 -6 48 -25 19 -19 42 -31 57 -31 l26 1 -27 23
c-15 13 -24 26 -21 29 3 3 1 12 -3 19 -21 33 -8 52 16 23 15 -18 31 -10 23 10
-3 8 0 15 6 15 6 0 11 4 11 10 0 5 -13 7 -30 4 -16 -4 -30 -3 -30 2 1 13 33
50 50 57 12 4 11 6 -2 6 -10 1 -18 8 -18 16 0 21 -23 19 -53 -5 l-26 -20 -6
21 c-5 14 -1 25 12 35 17 14 16 14 -4 4 -17 -8 -29 -8 -44 0 -11 6 -25 9 -32
6 -7 -2 -4 -5 6 -5 16 -1 26 -21 10 -21 -5 0 -13 -11 -20 -25 -10 -24 -9 -25
18 -25 22 0 29 -5 29 -20 0 -11 5 -20 11 -20 5 0 7 5 4 10 -3 6 -2 10 3 10 5
0 10 -12 10 -26 0 -15 4 -29 9 -33 5 -3 12 -14 16 -24 6 -15 4 -16 -16 -5 -29
15 -96 19 -121 6 -13 -7 -16 -7 -12 1 4 7 -1 11 -12 11 -25 0 -32 19 -27 64 4
27 1 36 -13 39 -14 3 -12 6 8 15 l25 11 -27 0 c-18 1 -29 8 -33 21 -6 17 -25
29 -25 15z m297 -61 c-3 -3 -12 -4 -19 -1 -8 3 -5 6 6 6 11 1 17 -2 13 -5z
m-260 -30 c-9 -9 -28 6 -21 18 4 6 10 6 17 -1 6 -6 8 -13 4 -17z m-79 -23 c30
-15 74 -23 67 -11 -3 5 -2 10 3 10 11 0 26 -50 17 -58 -3 -3 -11 0 -17 6 -17
17 -38 15 -38 -3 0 -24 -14 -18 -61 25 l-44 39 28 1 c16 0 36 -4 45 -9z m-348
-25 c0 -2 -7 -7 -16 -10 -8 -3 -12 -2 -9 4 6 10 25 14 25 6z m-60 -50 c0 -2
-7 -7 -16 -10 -8 -3 -12 -2 -9 4 6 10 25 14 25 6z m85 -56 c-3 -5 -23 -9 -43
-9 l-37 1 30 8 c44 11 57 11 50 0z m525 -101 c0 -16 -15 -9 -34 17 l-19 26 27
-17 c14 -10 26 -21 26 -26z m-60 21 c0 -5 -2 -10 -4 -10 -3 0 -8 5 -11 10 -3
6 -1 10 4 10 6 0 11 -4 11 -10z m24 -39 c3 -5 -1 -11 -9 -15 -15 -6 -29 7 -18
18 9 9 21 8 27 -3z m-64 -65 c0 -1 -8 -2 -18 -3 -9 -1 -22 -2 -27 -3 -22 -5
-35 1 -35 15 0 8 -4 15 -10 15 -5 0 -7 6 -4 14 4 11 14 9 50 -11 24 -14 44
-26 44 -27z m-92 -9 c5 -23 -10 -21 -26 4 -12 18 -11 20 5 17 10 -2 19 -11 21
-21z m267 5 c-3 -3 -11 0 -18 7 -9 10 -8 11 6 5 10 -3 15 -9 12 -12z m-955
-22 c0 -5 -4 -10 -10 -10 -5 0 -10 5 -10 10 0 6 5 10 10 10 6 0 10 -4 10 -10z
m58 3 c-10 -2 -26 -2 -35 0 -10 3 -2 5 17 5 19 0 27 -2 18 -5z m-100 -15 c46
-12 54 -23 21 -33 -12 -4 -18 -12 -15 -21 3 -8 1 -14 -4 -14 -6 0 -10 5 -10
10 0 6 -13 10 -29 10 -16 0 -34 7 -41 15 -7 8 -22 15 -34 15 -20 1 -20 1 -3
14 21 16 57 17 115 4z m830 1 c27 0 27 0 4 -10 -13 -5 -28 -6 -33 -3 -6 3 -17
0 -25 -7 -8 -6 -17 -9 -20 -6 -10 9 20 37 34 32 8 -3 26 -5 40 -6z m87 -20
c-4 -6 -13 -8 -21 -5 -7 3 -18 -4 -24 -15 -6 -11 -15 -17 -21 -14 -16 10 -10
25 14 35 31 12 60 12 52 -1z m-198 -14 c0 -8 -4 -15 -8 -15 -11 0 -20 16 -12
24 11 11 20 7 20 -9z m-814 -9 c9 -5 17 -13 17 -18 0 -7 -4 -7 -12 0 -14 11
-17 12 -53 12 -14 0 -25 4 -25 9 0 10 47 8 73 -3z m997 -36 c0 -5 -5 -10 -12
-10 -6 0 -8 -3 -5 -7 4 -3 2 -12 -4 -19 -6 -8 -8 -21 -5 -30 5 -13 15 -15 41
-11 19 3 35 2 35 -4 0 -5 -13 -9 -29 -9 -16 0 -34 -7 -41 -15 -7 -8 -19 -15
-27 -15 -13 0 -13 3 -2 16 10 13 10 17 -2 25 -18 11 -35 5 -31 -11 2 -8 -5
-10 -21 -6 -16 4 -29 0 -37 -9 -15 -18 -30 -20 -30 -4 0 6 14 16 30 22 30 12
40 27 18 27 -23 0 46 49 69 50 12 0 25 5 28 10 3 6 10 10 16 10 5 0 9 -4 9
-10z m-966 -95 c-3 -7 1 -15 8 -18 13 -4 14 -22 9 -82 -2 -19 -3 -18 -11 3 -5
12 -7 29 -4 37 4 10 0 15 -15 15 -16 0 -21 6 -21 28 0 15 -3 38 -7 52 l-6 25
26 -24 c14 -13 23 -29 21 -36z m774 12 c2 -20 -1 -37 -7 -37 -5 0 -10 8 -10
18 1 9 -3 28 -7 41 -5 18 -4 23 7 19 8 -2 15 -21 17 -41z m-638 7 c0 -8 -5
-12 -10 -9 -6 4 -17 2 -25 -5 -17 -14 -77 -9 -82 7 -5 14 17 20 75 22 32 1 42
-3 42 -15z m-190 -38 c-8 -8 -13 -7 -20 4 -12 20 -1 33 16 19 11 -9 12 -15 4
-23z m795 24 c7 -12 -22 -12 -50 0 -17 7 -15 9 12 9 17 1 35 -3 38 -9z m-59
-35 c10 -8 15 -14 9 -14 -5 0 -19 6 -29 14 -11 8 -15 15 -10 15 6 0 19 -7 30
-15z m-549 -10 c3 -9 3 -18 0 -21 -8 -9 -77 18 -71 28 9 14 64 9 71 -7z m-177
-5 c0 -5 -5 -10 -11 -10 -5 0 -7 5 -4 10 3 6 8 10 11 10 2 0 4 -4 4 -10z
m1020 -15 c0 -8 -10 -17 -22 -21 l-21 -6 23 -13 c13 -7 18 -15 12 -19 -6 -3
-13 -2 -16 3 -3 4 -19 11 -36 14 -17 4 -30 13 -30 21 0 8 -6 17 -12 19 -7 3 1
6 19 6 17 1 34 5 37 10 8 13 46 1 46 -14z m-620 11 c0 -2 -9 -6 -20 -9 -11 -3
-18 -1 -14 4 5 9 34 13 34 5z m-380 -36 c0 -17 -2 -19 -14 -8 -14 13 -12 28 5
28 5 0 9 -9 9 -20z m130 11 c0 -15 -15 -21 -39 -14 -17 4 -19 8 -9 14 18 12
48 11 48 0z m821 -59 c-7 -2 -18 1 -23 6 -8 8 -4 9 13 5 13 -4 18 -8 10 -11z
m-266 -12 c-3 -5 0 -10 7 -11 7 0 2 -4 -10 -10 -33 -13 -49 0 -20 16 30 17 30
17 23 5z m172 -22 c14 -17 12 -50 -1 -45 -6 2 -10 11 -8 20 1 9 -9 19 -25 25
l-28 10 26 1 c15 1 31 -5 36 -11z m-107 -6 c0 -12 -39 -46 -45 -41 -6 7 24 49
36 49 5 0 9 -4 9 -8z m50 -12 c0 -5 -4 -10 -10 -10 -5 0 -10 5 -10 10 0 6 5
10 10 10 6 0 10 -4 10 -10z"/>
<path d="M1942 933 c-28 -5 -19 -23 12 -23 13 0 23 6 23 15 0 8 -3 14 -6 14
-3 -1 -16 -4 -29 -6z"/>
<path d="M1018 913 c7 -3 16 -2 19 1 4 3 -2 6 -13 5 -11 0 -14 -3 -6 -6z"/>
<path d="M930 890 c0 -5 7 -10 15 -10 8 0 15 5 15 10 0 6 -7 10 -15 10 -8 0
-15 -4 -15 -10z"/>
<path d="M575 870 c3 -5 1 -10 -6 -10 -8 0 -9 -3 0 -13 6 -8 7 -18 3 -22 -4
-5 -1 -5 6 -1 7 5 11 14 8 21 -2 7 1 18 7 24 8 8 6 11 -7 11 -9 0 -14 -4 -11
-10z"/>
<path d="M52 854 c-17 -19 -15 -23 9 -19 28 6 29 8 15 21 -8 8 -15 7 -24 -2z"/>
<path d="M610 866 c0 -10 28 -13 41 -5 10 6 7 9 -13 9 -16 0 -28 -2 -28 -4z"/>
<path d="M3883 863 c9 -2 23 -2 30 0 6 3 -1 5 -18 5 -16 0 -22 -2 -12 -5z"/>
<path d="M4820 862 c0 -18 19 -24 37 -13 10 6 13 11 6 11 -6 0 -18 3 -27 6 -9
3 -16 1 -16 -4z"/>
<path d="M4447 841 c3 -12 9 -21 14 -21 14 0 11 16 -5 29 -12 10 -13 8 -9 -8z"/>
<path d="M4907 809 c8 -8 19 -8 40 -1 28 10 28 10 -11 11 -29 1 -37 -2 -29
-10z"/>
<path d="M46 803 c-6 -7 -9 -173 -2 -173 2 0 18 6 35 13 32 14 29 26 -9 39 -8
3 3 9 25 13 22 5 60 19 85 31 41 22 43 24 17 24 -15 0 -39 8 -53 17 -21 14
-29 14 -46 4 -26 -16 -36 -6 -15 17 15 17 15 18 -7 20 -13 1 -26 -1 -30 -5z"/>
<path d="M4208 773 c6 -2 18 -2 25 0 6 3 1 5 -13 5 -14 0 -19 -2 -12 -5z"/>
<path d="M4463 773 c9 -2 23 -2 30 0 6 3 -1 5 -18 5 -16 0 -22 -2 -12 -5z"/>
<path d="M1382 758 c-7 -7 -12 -15 -12 -20 0 -12 28 2 34 18 7 17 -6 18 -22 2z"/>
<path d="M4411 751 c-11 -10 -21 -20 -21 -22 0 -10 150 -7 150 3 0 6 -9 8 -22
5 -13 -4 -35 2 -54 13 -30 19 -32 19 -53 1z"/>
<path d="M4510 760 c0 -5 5 -10 11 -10 5 0 7 5 4 10 -3 6 -8 10 -11 10 -2 0
-4 -4 -4 -10z"/>
<path d="M4839 758 c-1 -2 -3 -13 -4 -25 -2 -21 -1 -21 22 -6 18 12 21 18 11
24 -13 9 -27 11 -29 7z"/>
<path d="M4173 736 c6 -17 34 -19 56 -4 17 12 15 13 -20 14 -26 1 -38 -3 -36
-10z"/>
<path d="M163 690 c-37 -33 -40 -45 -17 -54 22 -8 24 -8 24 7 0 7 13 27 29 45
39 43 10 44 -36 2z"/>
<path d="M4852 708 c-16 -16 -15 -28 2 -28 7 0 16 9 19 20 6 23 -3 26 -21 8z"/>
<path d="M4800 692 c0 -12 19 -26 26 -19 2 2 -2 10 -11 17 -9 8 -15 8 -15 2z"/>
<path d="M1210 680 c-11 -7 -7 -10 18 -10 20 0 31 4 27 10 -8 13 -26 13 -45 0z"/>
<path d="M4750 671 c12 -24 16 -26 54 -35 l29 -7 -32 30 c-39 36 -68 42 -51
12z"/>
<path d="M1408 657 c-3 -17 1 -22 18 -23 13 -1 25 5 29 14 7 18 4 21 -23 27
-14 2 -21 -3 -24 -18z"/>
<path d="M4461 671 c-7 -5 -9 -11 -5 -13 17 -9 94 -2 106 10 9 9 1 12 -37 12
-28 0 -56 -4 -64 -9z"/>
<path d="M1260 660 c-8 -5 -10 -10 -5 -10 6 0 17 5 25 10 8 5 11 10 5 10 -5 0
-17 -5 -25 -10z"/>
<path d="M4895 639 c-27 -3 -44 -7 -37 -7 6 -1 12 -11 12 -21 0 -28 14 -33 32
-12 9 11 24 24 34 29 27 15 16 18 -41 11z"/>
<path d="M1777 602 c-9 -2 -14 -8 -11 -14 5 -8 -10 -9 -47 -4 -50 6 -53 5 -34
-9 12 -10 16 -19 10 -23 -6 -4 -18 -19 -28 -34 -10 -16 -22 -28 -28 -28 -15 0
-39 -26 -32 -34 3 -3 -1 -14 -9 -23 -23 -27 -75 -134 -83 -170 -4 -18 -11 -35
-16 -38 -5 -4 -5 -14 2 -26 6 -11 8 -27 5 -35 -4 -12 -1 -14 14 -9 11 4 20 2
20 -4 0 -5 -10 -13 -22 -17 -20 -6 -19 -8 12 -18 41 -13 52 -36 18 -36 -14 0
-28 3 -32 7 -4 5 -21 8 -37 8 -33 0 -51 -31 -28 -47 11 -8 11 -11 1 -15 -10
-4 -10 -8 -1 -19 15 -19 50 -19 43 0 -4 9 7 20 30 31 37 18 56 14 56 -11 0
-12 7 -14 33 -9 30 6 31 5 13 -10 -18 -14 1 -15 205 -14 123 1 211 4 194 6
-16 3 -36 10 -44 16 -8 7 -22 11 -33 9 -13 -2 -18 3 -18 18 0 13 -5 20 -12 17
-7 -2 -12 -11 -12 -20 1 -9 -2 -14 -7 -11 -5 3 -9 14 -9 24 0 16 -5 18 -36 13
-32 -5 -36 -4 -32 13 4 18 -29 56 -79 90 -19 14 -23 13 -42 -3 -12 -9 -21 -22
-21 -28 0 -11 -70 -12 -88 -1 -20 12 -13 40 12 52 14 6 28 8 33 4 11 -11 74 0
67 11 -3 5 -17 9 -32 10 -26 0 -26 1 -4 9 28 12 29 24 1 15 -18 -6 -20 -3 -16
22 7 39 17 63 28 63 5 0 9 9 9 20 0 11 -5 20 -12 20 -6 0 -2 9 11 21 12 11 20
26 19 31 -2 6 10 26 27 44 16 18 42 55 57 83 27 50 24 62 -15 53z m-272 -541
c-3 -6 -11 -11 -17 -11 -6 0 -6 6 2 15 14 17 26 13 15 -4z"/>
<path d="M4572 571 c-10 -6 -8 -10 9 -14 26 -7 42 0 34 14 -8 11 -26 11 -43 0z"/>
<path d="M4929 551 c-19 -15 -21 -21 -11 -34 10 -12 10 -16 0 -20 -7 -2 -11
-7 -8 -10 3 -4 23 9 45 28 21 19 34 35 29 35 -5 0 -2 5 6 10 12 8 9 10 -11 10
-15 0 -37 -8 -50 -19z"/>
<path d="M5080 436 c0 -2 9 -6 20 -9 11 -3 20 -1 20 4 0 5 -9 9 -20 9 -11 0
-20 -2 -20 -4z"/>
<path d="M4895 320 c3 -5 8 -10 11 -10 2 0 4 5 4 10 0 6 -5 10 -11 10 -5 0 -7
-4 -4 -10z"/>
<path d="M3540 50 c0 -5 5 -10 11 -10 5 0 7 5 4 10 -3 6 -8 10 -11 10 -2 0 -4
-4 -4 -10z"/>
<path d="M3492 28 c-19 -19 -14 -25 17 -25 22 0 27 4 23 19 -5 21 -23 23 -40
6z"/>
<path d="M3435 10 c-3 -5 1 -10 9 -10 9 0 16 5 16 10 0 6 -4 10 -9 10 -6 0
-13 -4 -16 -10z"/>
</g>
</svg>
